<mxfile host="app.diagrams.net" agent="Mozilla/5.0 (Windows NT 10.0; Win64; x64) AppleWebKit/537.36 (KHTML, like Gecko) Chrome/141.0.0.0 Safari/537.36 Edg/141.0.0.0" version="28.2.5">
  <diagram name="Страница — 1" id="3JiX2s8fS6-YC333L5a-">
    <mxGraphModel dx="1827" dy="958" grid="1" gridSize="10" guides="1" tooltips="1" connect="1" arrows="1" fold="1" page="1" pageScale="1" pageWidth="827" pageHeight="1169" math="0" shadow="0">
      <root>
        <mxCell id="0" />
        <mxCell id="1" parent="0" />
        <mxCell id="dvTwu2l0tZG-hLlcorVe-24" value="НСИ" style="whiteSpace=wrap;html=1;align=center;" vertex="1" parent="1">
          <mxGeometry x="150" y="20" width="100" height="40" as="geometry" />
        </mxCell>
        <mxCell id="dvTwu2l0tZG-hLlcorVe-25" value="Партия" style="whiteSpace=wrap;html=1;align=center;" vertex="1" parent="1">
          <mxGeometry x="313" y="140" width="100" height="40" as="geometry" />
        </mxCell>
        <mxCell id="dvTwu2l0tZG-hLlcorVe-26" value="Список&lt;div&gt;товаров&lt;/div&gt;" style="whiteSpace=wrap;html=1;align=center;" vertex="1" parent="1">
          <mxGeometry x="313" y="20" width="100" height="40" as="geometry" />
        </mxCell>
        <mxCell id="dvTwu2l0tZG-hLlcorVe-27" value="Позиция в чеке" style="whiteSpace=wrap;html=1;align=center;" vertex="1" parent="1">
          <mxGeometry x="314" y="260" width="100" height="40" as="geometry" />
        </mxCell>
        <mxCell id="dvTwu2l0tZG-hLlcorVe-28" value="Склад" style="whiteSpace=wrap;html=1;align=center;" vertex="1" parent="1">
          <mxGeometry x="490" y="140" width="100" height="40" as="geometry" />
        </mxCell>
        <mxCell id="dvTwu2l0tZG-hLlcorVe-29" value="Предзаказ" style="whiteSpace=wrap;html=1;align=center;" vertex="1" parent="1">
          <mxGeometry x="490" y="260" width="100" height="40" as="geometry" />
        </mxCell>
        <mxCell id="dvTwu2l0tZG-hLlcorVe-30" value="Сотрудник" style="whiteSpace=wrap;html=1;align=center;" vertex="1" parent="1">
          <mxGeometry x="160" y="310" width="100" height="40" as="geometry" />
        </mxCell>
        <mxCell id="dvTwu2l0tZG-hLlcorVe-31" value="магазин" style="whiteSpace=wrap;html=1;align=center;" vertex="1" parent="1">
          <mxGeometry x="160" y="140" width="100" height="40" as="geometry" />
        </mxCell>
        <mxCell id="dvTwu2l0tZG-hLlcorVe-32" value="Заказ(Чек)" style="whiteSpace=wrap;html=1;align=center;" vertex="1" parent="1">
          <mxGeometry x="314" y="370" width="100" height="40" as="geometry" />
        </mxCell>
        <mxCell id="dvTwu2l0tZG-hLlcorVe-33" value="Клиент" style="whiteSpace=wrap;html=1;align=center;" vertex="1" parent="1">
          <mxGeometry x="490" y="370" width="100" height="40" as="geometry" />
        </mxCell>
        <mxCell id="dvTwu2l0tZG-hLlcorVe-41" value="" style="endArrow=ERzeroToOne;html=1;rounded=0;entryX=0.449;entryY=1.001;entryDx=0;entryDy=0;entryPerimeter=0;exitX=0.453;exitY=0.022;exitDx=0;exitDy=0;exitPerimeter=0;startArrow=ERoneToMany;startFill=0;endFill=0;fillColor=#dae8fc;strokeColor=#6c8ebf;" edge="1" parent="1" source="dvTwu2l0tZG-hLlcorVe-25" target="dvTwu2l0tZG-hLlcorVe-26">
          <mxGeometry width="50" height="50" relative="1" as="geometry">
            <mxPoint x="357" y="135" as="sourcePoint" />
            <mxPoint x="250" y="25" as="targetPoint" />
          </mxGeometry>
        </mxCell>
        <mxCell id="dvTwu2l0tZG-hLlcorVe-42" value="Центр клиентов" style="html=1;whiteSpace=wrap;" vertex="1" parent="1">
          <mxGeometry x="10" y="137.5" width="90" height="45" as="geometry" />
        </mxCell>
        <mxCell id="dvTwu2l0tZG-hLlcorVe-43" value="Сайт" style="html=1;whiteSpace=wrap;" vertex="1" parent="1">
          <mxGeometry x="660" y="255" width="110" height="50" as="geometry" />
        </mxCell>
        <mxCell id="dvTwu2l0tZG-hLlcorVe-44" value="" style="endArrow=ERzeroToOne;html=1;rounded=0;entryX=0.5;entryY=1;entryDx=0;entryDy=0;exitX=0.5;exitY=0;exitDx=0;exitDy=0;startArrow=ERoneToMany;startFill=0;endFill=0;" edge="1" parent="1" source="dvTwu2l0tZG-hLlcorVe-27" target="dvTwu2l0tZG-hLlcorVe-25">
          <mxGeometry width="50" height="50" relative="1" as="geometry">
            <mxPoint x="364" y="260" as="sourcePoint" />
            <mxPoint x="300" y="160" as="targetPoint" />
          </mxGeometry>
        </mxCell>
        <mxCell id="dvTwu2l0tZG-hLlcorVe-45" value="" style="endArrow=none;html=1;rounded=0;exitX=1.014;exitY=0.559;exitDx=0;exitDy=0;exitPerimeter=0;entryX=0;entryY=0.5;entryDx=0;entryDy=0;" edge="1" parent="1" source="dvTwu2l0tZG-hLlcorVe-31" target="dvTwu2l0tZG-hLlcorVe-25">
          <mxGeometry width="50" height="50" relative="1" as="geometry">
            <mxPoint x="270" y="170" as="sourcePoint" />
            <mxPoint x="310" y="160" as="targetPoint" />
          </mxGeometry>
        </mxCell>
        <mxCell id="dvTwu2l0tZG-hLlcorVe-46" value="" style="endArrow=ERoneToMany;html=1;rounded=0;exitX=1;exitY=0.5;exitDx=0;exitDy=0;entryX=0;entryY=0.5;entryDx=0;entryDy=0;startArrow=ERone;startFill=0;endFill=0;" edge="1" parent="1" source="dvTwu2l0tZG-hLlcorVe-24" target="dvTwu2l0tZG-hLlcorVe-26">
          <mxGeometry width="50" height="50" relative="1" as="geometry">
            <mxPoint x="180" y="140" as="sourcePoint" />
            <mxPoint x="310" y="40" as="targetPoint" />
          </mxGeometry>
        </mxCell>
        <mxCell id="dvTwu2l0tZG-hLlcorVe-49" value="" style="endArrow=ERzeroToOne;html=1;rounded=0;entryX=0;entryY=0.5;entryDx=0;entryDy=0;exitX=1;exitY=0.5;exitDx=0;exitDy=0;startArrow=ERoneToMany;startFill=0;endFill=0;" edge="1" parent="1" source="dvTwu2l0tZG-hLlcorVe-25" target="dvTwu2l0tZG-hLlcorVe-28">
          <mxGeometry width="50" height="50" relative="1" as="geometry">
            <mxPoint x="420" y="160" as="sourcePoint" />
            <mxPoint x="280" y="190" as="targetPoint" />
          </mxGeometry>
        </mxCell>
        <mxCell id="dvTwu2l0tZG-hLlcorVe-50" value="" style="endArrow=ERone;html=1;rounded=0;exitX=0.5;exitY=1;exitDx=0;exitDy=0;entryX=0.5;entryY=0;entryDx=0;entryDy=0;startArrow=ERoneToMany;startFill=0;endFill=0;" edge="1" parent="1" source="dvTwu2l0tZG-hLlcorVe-27" target="dvTwu2l0tZG-hLlcorVe-32">
          <mxGeometry width="50" height="50" relative="1" as="geometry">
            <mxPoint x="450" y="330" as="sourcePoint" />
            <mxPoint x="500" y="280" as="targetPoint" />
          </mxGeometry>
        </mxCell>
        <mxCell id="dvTwu2l0tZG-hLlcorVe-51" value="" style="endArrow=ERoneToMany;html=1;rounded=0;entryX=0.5;entryY=1;entryDx=0;entryDy=0;exitX=0.5;exitY=0;exitDx=0;exitDy=0;startArrow=ERzeroToOne;startFill=0;endFill=0;" edge="1" parent="1" source="dvTwu2l0tZG-hLlcorVe-33" target="dvTwu2l0tZG-hLlcorVe-29">
          <mxGeometry width="50" height="50" relative="1" as="geometry">
            <mxPoint x="450" y="330" as="sourcePoint" />
            <mxPoint x="500" y="280" as="targetPoint" />
          </mxGeometry>
        </mxCell>
        <mxCell id="dvTwu2l0tZG-hLlcorVe-52" value="" style="endArrow=none;html=1;rounded=0;entryX=0.5;entryY=1;entryDx=0;entryDy=0;exitX=0.5;exitY=0;exitDx=0;exitDy=0;" edge="1" parent="1" source="dvTwu2l0tZG-hLlcorVe-29" target="dvTwu2l0tZG-hLlcorVe-28">
          <mxGeometry width="50" height="50" relative="1" as="geometry">
            <mxPoint x="450" y="210" as="sourcePoint" />
            <mxPoint x="500" y="160" as="targetPoint" />
          </mxGeometry>
        </mxCell>
        <mxCell id="dvTwu2l0tZG-hLlcorVe-53" value="" style="endArrow=ERzeroToOne;html=1;rounded=0;exitX=1;exitY=0.5;exitDx=0;exitDy=0;entryX=0;entryY=0.5;entryDx=0;entryDy=0;startArrow=ERoneToMany;startFill=0;endFill=0;" edge="1" parent="1" source="dvTwu2l0tZG-hLlcorVe-32" target="dvTwu2l0tZG-hLlcorVe-33">
          <mxGeometry width="50" height="50" relative="1" as="geometry">
            <mxPoint x="450" y="210" as="sourcePoint" />
            <mxPoint x="500" y="160" as="targetPoint" />
          </mxGeometry>
        </mxCell>
        <mxCell id="dvTwu2l0tZG-hLlcorVe-54" value="" style="endArrow=ERoneToMany;html=1;rounded=0;exitX=0.5;exitY=1;exitDx=0;exitDy=0;entryX=0;entryY=0.5;entryDx=0;entryDy=0;endFill=0;" edge="1" parent="1" source="dvTwu2l0tZG-hLlcorVe-30" target="dvTwu2l0tZG-hLlcorVe-32">
          <mxGeometry width="50" height="50" relative="1" as="geometry">
            <mxPoint x="250" y="210" as="sourcePoint" />
            <mxPoint x="300" y="160" as="targetPoint" />
            <Array as="points">
              <mxPoint x="210" y="390" />
            </Array>
          </mxGeometry>
        </mxCell>
        <mxCell id="dvTwu2l0tZG-hLlcorVe-55" value="" style="endArrow=ERoneToMany;html=1;rounded=0;exitX=1;exitY=0.5;exitDx=0;exitDy=0;entryX=0;entryY=0.5;entryDx=0;entryDy=0;startArrow=ERzeroToOne;startFill=0;endFill=0;fillColor=#dae8fc;strokeColor=#6c8ebf;" edge="1" parent="1" source="dvTwu2l0tZG-hLlcorVe-42" target="dvTwu2l0tZG-hLlcorVe-31">
          <mxGeometry width="50" height="50" relative="1" as="geometry">
            <mxPoint x="300" y="200" as="sourcePoint" />
            <mxPoint x="350" y="150" as="targetPoint" />
          </mxGeometry>
        </mxCell>
        <mxCell id="dvTwu2l0tZG-hLlcorVe-56" value="" style="endArrow=ERzeroToOne;html=1;rounded=0;exitX=1;exitY=0.5;exitDx=0;exitDy=0;entryX=0;entryY=0.5;entryDx=0;entryDy=0;startArrow=ERoneToMany;startFill=0;endFill=0;fillColor=#dae8fc;strokeColor=#6c8ebf;" edge="1" parent="1" source="dvTwu2l0tZG-hLlcorVe-29" target="dvTwu2l0tZG-hLlcorVe-43">
          <mxGeometry width="50" height="50" relative="1" as="geometry">
            <mxPoint x="300" y="200" as="sourcePoint" />
            <mxPoint x="350" y="150" as="targetPoint" />
          </mxGeometry>
        </mxCell>
        <mxCell id="dvTwu2l0tZG-hLlcorVe-57" value="модель сотрудников" style="html=1;whiteSpace=wrap;" vertex="1" parent="1">
          <mxGeometry x="155" y="230" width="110" height="50" as="geometry" />
        </mxCell>
        <mxCell id="dvTwu2l0tZG-hLlcorVe-58" value="" style="endArrow=ERoneToMany;html=1;rounded=0;entryX=0.5;entryY=1;entryDx=0;entryDy=0;startArrow=ERzeroToOne;startFill=0;endFill=0;fillColor=#dae8fc;strokeColor=#6c8ebf;" edge="1" parent="1" source="dvTwu2l0tZG-hLlcorVe-57" target="dvTwu2l0tZG-hLlcorVe-31">
          <mxGeometry width="50" height="50" relative="1" as="geometry">
            <mxPoint x="300" y="310" as="sourcePoint" />
            <mxPoint x="350" y="260" as="targetPoint" />
          </mxGeometry>
        </mxCell>
        <mxCell id="dvTwu2l0tZG-hLlcorVe-59" value="1.должно быть наоборот -один товор может быть в мнргих партиях" style="text;whiteSpace=wrap;html=1;" vertex="1" parent="1">
          <mxGeometry x="390" y="70" width="240" height="40" as="geometry" />
        </mxCell>
        <mxCell id="dvTwu2l0tZG-hLlcorVe-60" value="2,Информация о клиентах должна храниться централизованно" style="text;whiteSpace=wrap;html=1;" vertex="1" parent="1">
          <mxGeometry x="40" y="80" width="170" height="30" as="geometry" />
        </mxCell>
        <mxCell id="dvTwu2l0tZG-hLlcorVe-62" value="3.Клиенты оформляют предзаказы на сайте" style="text;whiteSpace=wrap;html=1;" vertex="1" parent="1">
          <mxGeometry x="580" y="210" width="150" height="30" as="geometry" />
        </mxCell>
        <mxCell id="dvTwu2l0tZG-hLlcorVe-64" value="4.В небольших магазинах нет отделов кадров в каждом филиале" style="text;whiteSpace=wrap;html=1;" vertex="1" parent="1">
          <mxGeometry x="65" y="190" width="90" height="20" as="geometry" />
        </mxCell>
        <mxCell id="dvTwu2l0tZG-hLlcorVe-65" value="персонал склада" style="html=1;whiteSpace=wrap;" vertex="1" parent="1">
          <mxGeometry x="660" y="133" width="110" height="50" as="geometry" />
        </mxCell>
        <mxCell id="dvTwu2l0tZG-hLlcorVe-66" value="" style="endArrow=ERzeroToOne;html=1;rounded=0;exitX=0;exitY=0.5;exitDx=0;exitDy=0;startArrow=ERoneToMany;startFill=0;endFill=0;fillColor=#dae8fc;strokeColor=#6c8ebf;entryX=1;entryY=0.5;entryDx=0;entryDy=0;" edge="1" parent="1" source="dvTwu2l0tZG-hLlcorVe-65" target="dvTwu2l0tZG-hLlcorVe-28">
          <mxGeometry width="50" height="50" relative="1" as="geometry">
            <mxPoint x="710" y="151" as="sourcePoint" />
            <mxPoint x="680" y="50" as="targetPoint" />
          </mxGeometry>
        </mxCell>
        <mxCell id="dvTwu2l0tZG-hLlcorVe-68" value="7/ОТСУТСТВИЕ СВЯЗЕЙ ДЛЯ СОТРУДНИКОВ СКЛАДА" style="text;whiteSpace=wrap;html=1;" vertex="1" parent="1">
          <mxGeometry x="660" y="90" width="180" height="30" as="geometry" />
        </mxCell>
        <mxCell id="dvTwu2l0tZG-hLlcorVe-69" value="" style="endArrow=ERoneToMany;html=1;rounded=0;entryX=0.5;entryY=0;entryDx=0;entryDy=0;startArrow=ERzeroToOne;startFill=0;endFill=0;fillColor=#dae8fc;strokeColor=#6c8ebf;exitX=0.5;exitY=1;exitDx=0;exitDy=0;" edge="1" parent="1" source="dvTwu2l0tZG-hLlcorVe-57" target="dvTwu2l0tZG-hLlcorVe-30">
          <mxGeometry width="50" height="50" relative="1" as="geometry">
            <mxPoint x="120" y="360" as="sourcePoint" />
            <mxPoint x="120" y="310" as="targetPoint" />
          </mxGeometry>
        </mxCell>
      </root>
    </mxGraphModel>
  </diagram>
</mxfile>
